IKResults
version=1
nRows=5
nColumns=40
inDegrees=yes

Units are S.I. units (second, meters, Newtons, ...)
Angles are in degrees.

endheader
time	pelvis_tilt	pelvis_list	pelvis_rotation	pelvis_tx	pelvis_ty	pelvis_tz	hip_flexion_r	hip_adduction_r	hip_rotation_r	knee_angle_r	knee_angle_r_beta	ankle_angle_r	subtalar_angle_r	mtp_angle_r	hip_flexion_l	hip_adduction_l	hip_rotation_l	knee_angle_l	knee_angle_l_beta	ankle_angle_l	subtalar_angle_l	mtp_angle_l	lumbar_extension	lumbar_bending	lumbar_rotation	arm_flex_r	arm_add_r	arm_rot_r	elbow_flex_r	pro_sup_r	wrist_flex_r	wrist_dev_r	arm_flex_l	arm_add_l	arm_rot_l	elbow_flex_l	pro_sup_l	wrist_flex_l	wrist_dev_l
      0.90000000	     17.47715583	      4.49280509	     -4.44568121	     -0.15821527	      0.93728050	     -1.44097378	    -25.98647172	     -8.40053340	     -7.38522494	    -39.98493590	     -0.69786878	     -6.53472575	     -6.93478017	     -0.16506973	     -0.42836938	     -4.70980737	     18.80453348	    -20.51876305	     -0.35811997	      3.14870344	      0.18760722	     -5.12517268	    -21.39745707	     -7.31205762	      6.06158043	      0.72799729	    -12.73022282	     -1.11663254	     50.37586629	     89.95437384	      0.00000000	      0.00000000	    -16.27613959	      7.57969293	     -2.19041678	     15.00564373	     89.95437384	      0.00000000	      0.00000000
      0.91000000	     17.49355705	      4.91276304	     -4.82175914	     -0.14615185	      0.93821698	     -1.44262383	    -24.51972786	     -9.69519068	     -7.95139778	    -43.00322473	     -0.75054786	     -9.69005442	     -7.88086556	      0.55444477	     -1.28724607	     -5.48156064	     18.74774609	    -20.33437436	     -0.35490178	      3.93672197	      0.37771740	     -5.12361102	    -21.15203383	     -7.76410203	      5.97905027	      0.27290082	    -12.76912874	     -0.25160872	     49.38165712	     89.95437384	      0.00000000	      0.00000000	    -15.77413546	      7.44904653	     -2.05840177	     14.72760590	     89.95437384	      0.00000000	      0.00000000
      0.92000000	     17.66322971	      4.99089489	     -5.00468696	     -0.13487487	      0.93931056	     -1.44419695	    -23.20617497	    -10.36533096	     -8.00390350	    -45.89083022	     -0.80094608	    -12.05718512	     -8.51113017	      1.08039584	     -2.32720096	     -5.85182886	     18.64386610	    -20.10352922	     -0.35087278	      4.46275072	      0.27213829	     -5.11906515	    -21.26613248	     -7.81101176	      5.75308822	     -0.05143600	    -12.71259832	      0.36069737	     48.40272379	     89.95437384	      0.00000000	      0.00000000	    -15.20226828	      7.31949583	     -1.85434693	     14.73743620	     89.95437384	      0.00000000	      0.00000000
      0.93000000	     17.74304672	      5.21447323	     -5.29098737	     -0.12398162	      0.94003765	     -1.44570967	    -21.64023674	    -11.19537275	     -7.94220363	    -48.80823851	     -0.85186446	    -14.60531739	    -10.08714833	      2.05614965	     -3.25518247	     -6.36704515	     18.82669207	    -19.80532201	     -0.34566808	      4.64649877	      0.31676566	     -5.10144390	    -21.31563047	     -8.03133726	      5.55950925	     -0.36753281	    -12.68590073	      1.01331879	     47.46734657	     89.95437384	      0.00000000	      0.00000000	    -14.54469721	      7.15943353	     -1.11725974	     14.78278023	     89.95437384	      0.00000000	      0.00000000
      0.94000000	     18.15544888	      4.95226635	     -5.11202029	     -0.11329644	      0.94128445	     -1.44731199	    -20.73808905	    -11.23067513	     -8.00066613	    -51.18468195	     -0.89334123	    -15.78946039	    -10.27266678	      2.24138348	     -4.49888009	     -6.22539307	     18.92189282	    -19.76663018	     -0.34499278	      5.05378745	      0.16061306	     -5.09123019	    -21.87920148	     -7.62821073	      5.08977026	     -0.73051702	    -12.54592395	      1.23695351	     46.64964105	     89.95437384	      0.00000000	      0.00000000	    -13.81018045	      7.13879170	     -1.07101256	     15.02066336	     89.95437384	      0.00000000	      0.00000000
